<svg width="45" height="57" viewBox="0 0 45 57" fill="none" xmlns="http://www.w3.org/2000/svg">
<path d="M8.80764 17.4474C8.53803 20.3353 8.34883 25.4462 10.0469 27.6217C10.0469 27.6217 9.24753 22.0073 16.4134 14.9632C19.2987 12.1274 19.9656 8.2705 18.9582 5.3778C18.3858 3.73907 17.3405 2.38534 16.4324 1.44011C15.9026 0.884367 16.3094 -0.0323695 17.0804 0.000879956C21.7441 0.209877 29.3026 1.51136 32.5143 9.60523C33.9238 13.1582 34.0278 16.8299 33.3562 20.5633C32.9305 22.9478 31.4169 28.2487 34.8698 28.8994C37.3341 29.3649 38.526 27.3985 39.0605 25.983C39.2828 25.394 40.0538 25.2467 40.4701 25.717C44.6324 30.4717 44.9872 36.0718 44.1263 40.893C42.4614 50.2124 33.0629 56.9953 23.726 56.9953C12.0619 56.9953 2.77693 50.2931 0.369371 38.1618C-0.600273 33.2646 -0.108355 23.5748 7.4123 16.7349C7.97044 16.2219 8.88332 16.6779 8.80764 17.4474Z" fill="url(#paint0_radial_104_1242)"/>
<path d="M27.9877 34.8748C23.6881 29.3174 25.6132 22.9763 26.668 20.4493C26.8099 20.1168 26.4315 19.8033 26.1335 20.0076C24.2841 21.271 20.4954 24.2445 18.7311 28.4292C16.3425 34.0863 16.5128 36.8556 17.927 40.2375C18.7784 42.2752 17.7899 42.7075 17.2932 42.7835C16.8108 42.8595 16.3661 42.5365 16.0114 42.1992C14.9944 41.2255 14.2613 39.9573 13.9113 38.5893C13.8356 38.2948 13.4525 38.214 13.2775 38.4563C11.9531 40.2945 11.2672 43.2442 11.2341 45.3294C11.1301 51.7751 16.4324 57 22.8462 57C30.9297 57 36.8185 48.0226 32.1737 40.5177C30.8257 38.3328 29.558 36.9031 27.9877 34.8748Z" fill="url(#paint1_radial_104_1242)"/>
<defs>
<radialGradient id="paint0_radial_104_1242" cx="0" cy="0" r="1" gradientUnits="userSpaceOnUse" gradientTransform="translate(21.4159 57.1477) rotate(-179.75) scale(33.3878 55.0183)">
<stop offset="0.3144" stop-color="#FF9800"/>
<stop offset="0.6616" stop-color="#FF6D00"/>
<stop offset="0.9715" stop-color="#F44336"/>
</radialGradient>
<radialGradient id="paint1_radial_104_1242" cx="0" cy="0" r="1" gradientUnits="userSpaceOnUse" gradientTransform="translate(23.2907 23.7785) rotate(90.5763) scale(35.0812 26.2903)">
<stop offset="0.2141" stop-color="#FFF176"/>
<stop offset="0.3275" stop-color="#FFF27D"/>
<stop offset="0.4868" stop-color="#FFF48F"/>
<stop offset="0.6722" stop-color="#FFF7AD"/>
<stop offset="0.7931" stop-color="#FFF9C4"/>
<stop offset="0.8221" stop-color="#FFF8BD" stop-opacity="0.804"/>
<stop offset="0.8627" stop-color="#FFF6AB" stop-opacity="0.529"/>
<stop offset="0.9101" stop-color="#FFF38D" stop-opacity="0.2088"/>
<stop offset="0.9409" stop-color="#FFF176" stop-opacity="0"/>
</radialGradient>
</defs>
</svg>
