<svg width="441" height="92" viewBox="0 0 441 92" fill="none" xmlns="http://www.w3.org/2000/svg">
<path d="M100.009 37.3065C98.5421 16.7108 84.2075 0.5 66.6726 0.5C49.1377 0.5 34.8031 16.7108 33.3363 37.3065C13.3345 41.8907 0 50.3283 0 60.294C0 74.9767 30.0027 86.869 66.6726 86.869C103.343 86.869 133.345 74.9767 133.345 60.294C133.345 50.3283 120.011 41.8907 100.009 37.3065ZM86.2077 45.9434C73.5399 47.3386 59.8053 47.3386 47.1375 45.9434C46.8708 44.0832 46.6708 42.2229 46.6708 40.3626C46.6708 25.7463 55.6716 13.7875 66.6726 13.7875C77.6736 13.7875 86.6744 25.7463 86.6744 40.3626C86.6744 42.2229 86.6744 44.0832 86.2077 45.9434Z" fill="#6C34E3"/>
<path d="M159.218 24.8256H182.389V29.8655H164.457V42.3839H180.175V47.3696H164.457V64.0067H159.218V24.8256Z" fill="#1E1E1E"/>
<path d="M188.832 41.571H193.856V64.0067H188.832V41.571ZM188.454 33.4422C188.454 32.6473 188.76 31.979 189.373 31.4371C190.021 30.8951 190.723 30.6242 191.479 30.6242C192.235 30.6242 192.901 30.8951 193.478 31.4371C194.09 31.979 194.396 32.6473 194.396 33.4422C194.396 34.2731 194.09 34.9596 193.478 35.5015C192.901 36.0073 192.235 36.2602 191.479 36.2602C190.723 36.2602 190.021 35.9892 189.373 35.4473C188.76 34.9054 188.454 34.237 188.454 33.4422Z" fill="#1E1E1E"/>
<path d="M220.695 61.9473C219.687 62.7422 218.481 63.3744 217.076 63.8441C215.672 64.3137 214.268 64.5486 212.863 64.5486C210.415 64.5486 208.272 64.0609 206.436 63.0854C204.599 62.1099 203.159 60.7551 202.115 59.021C201.106 57.2507 200.602 55.1733 200.602 52.7888C200.602 50.4044 201.142 48.327 202.223 46.5567C203.339 44.7864 204.779 43.4316 206.544 42.4923C208.344 41.5168 210.271 41.0291 212.323 41.0291C214.124 41.0291 215.726 41.282 217.13 41.7878C218.571 42.2936 219.795 42.98 220.803 43.8471L218.319 47.0986C217.67 46.5928 216.878 46.1412 215.942 45.7438C215.006 45.3464 213.943 45.1477 212.755 45.1477C211.459 45.1477 210.253 45.4909 209.136 46.1774C208.056 46.8277 207.192 47.7309 206.544 48.887C205.932 50.0431 205.625 51.3437 205.625 52.7888C205.625 54.1617 205.95 55.4443 206.598 56.6365C207.246 57.7926 208.146 58.7139 209.298 59.4003C210.451 60.0506 211.765 60.3758 213.241 60.3758C214.214 60.3758 215.096 60.2313 215.888 59.9422C216.716 59.6532 217.454 59.2558 218.103 58.75L220.695 61.9473Z" fill="#1E1E1E"/>
<path d="M229.34 31.708H234.363V41.6794H240.521V45.6355H234.363V64.0067H229.34V45.6355H225.235V41.6794H229.34V31.708Z" fill="#1E1E1E"/>
<path d="M246.591 41.571H251.614V64.0067H246.591V41.571ZM246.213 33.4422C246.213 32.6473 246.519 31.979 247.131 31.4371C247.779 30.8951 248.481 30.6242 249.237 30.6242C249.994 30.6242 250.66 30.8951 251.236 31.4371C251.848 31.979 252.154 32.6473 252.154 33.4422C252.154 34.2731 251.848 34.9596 251.236 35.5015C250.66 36.0073 249.994 36.2602 249.237 36.2602C248.481 36.2602 247.779 35.9892 247.131 35.4473C246.519 34.9054 246.213 34.237 246.213 33.4422Z" fill="#1E1E1E"/>
<path d="M258.361 52.5721C258.361 50.3321 258.883 48.3089 259.927 46.5025C261.007 44.6961 262.484 43.2691 264.356 42.2213C266.228 41.1736 268.353 40.6498 270.73 40.6498C273.178 40.6498 275.321 41.1736 277.157 42.2213C278.994 43.2691 280.416 44.6961 281.424 46.5025C282.432 48.3089 282.937 50.3321 282.937 52.5721C282.937 54.812 282.432 56.8533 281.424 58.6958C280.416 60.5022 278.976 61.9293 277.103 62.977C275.267 64.0247 273.124 64.5486 270.676 64.5486C268.299 64.5486 266.174 64.0609 264.302 63.0854C262.466 62.0738 261.007 60.6829 259.927 58.9126C258.883 57.1062 258.361 54.9927 258.361 52.5721ZM263.384 52.6263C263.384 54.0714 263.708 55.3901 264.356 56.5823C265.004 57.7384 265.868 58.6597 266.949 59.3461C268.065 60.0326 269.289 60.3758 270.622 60.3758C272.026 60.3758 273.268 60.0326 274.348 59.3461C275.465 58.6597 276.329 57.7384 276.941 56.5823C277.553 55.3901 277.859 54.0714 277.859 52.6263C277.859 51.1811 277.553 49.8805 276.941 48.7244C276.329 47.5322 275.465 46.5928 274.348 45.9064C273.268 45.1838 272.026 44.8226 270.622 44.8226C269.253 44.8226 268.011 45.1838 266.895 45.9064C265.814 46.629 264.95 47.5864 264.302 48.7786C263.69 49.9347 263.384 51.2173 263.384 52.6263Z" fill="#1E1E1E"/>
<path d="M294.221 41.571L294.653 47.0444L294.437 46.1774C295.157 44.5155 296.328 43.1968 297.948 42.2213C299.568 41.2097 301.441 40.7039 303.565 40.7039C305.69 40.7039 307.418 41.3362 308.751 42.6007C310.119 43.829 310.821 45.4367 310.857 47.4238V64.0067H305.78V49.2121C305.744 47.9838 305.384 46.9903 304.7 46.2316C304.052 45.4367 303.025 45.0393 301.621 45.0393C300.325 45.0393 299.154 45.4006 298.11 46.1232C297.066 46.8457 296.238 47.8393 295.625 49.1038C295.049 50.3682 294.761 51.8314 294.761 53.4933V64.0067H289.738V41.571H294.221Z" fill="#1E1E1E"/>
<path d="M341.036 31.8164C339.704 31.13 338.246 30.5338 336.661 30.0281C335.077 29.5223 333.528 29.2694 332.016 29.2694C329.928 29.2694 328.253 29.7571 326.993 30.7326C325.768 31.708 325.156 33.0086 325.156 34.6344C325.156 35.8628 325.552 36.9105 326.345 37.7776C327.137 38.6085 328.181 39.3311 329.477 39.9453C330.774 40.5594 332.124 41.1375 333.528 41.6794C334.753 42.1491 335.959 42.6729 337.147 43.251C338.336 43.829 339.398 44.5516 340.334 45.4187C341.306 46.2858 342.062 47.3515 342.603 48.616C343.179 49.8805 343.467 51.4521 343.467 53.3308C343.467 55.3901 342.945 57.2687 341.9 58.9668C340.892 60.6648 339.434 62.0015 337.525 62.977C335.617 63.9525 333.348 64.4402 330.72 64.4402C328.991 64.4402 327.335 64.2415 325.75 63.8441C324.202 63.4467 322.762 62.9409 321.429 62.3267C320.097 61.6764 318.909 61.008 317.865 60.3216L320.187 56.203C321.051 56.8171 322.042 57.4132 323.158 57.9913C324.274 58.5332 325.444 58.9848 326.669 59.3461C327.893 59.6713 329.081 59.8338 330.234 59.8338C331.458 59.8338 332.664 59.6171 333.852 59.1835C335.077 58.7139 336.085 58.0094 336.877 57.07C337.669 56.1307 338.065 54.8843 338.065 53.3308C338.065 51.994 337.705 50.8921 336.985 50.025C336.301 49.1218 335.383 48.3631 334.231 47.749C333.078 47.0986 331.854 46.5206 330.558 46.0148C329.333 45.5451 328.091 45.0393 326.831 44.4974C325.57 43.9194 324.4 43.2329 323.32 42.4381C322.24 41.6072 321.375 40.5956 320.727 39.4033C320.079 38.2111 319.755 36.766 319.755 35.0679C319.755 33.0086 320.241 31.2203 321.213 29.7029C322.222 28.1494 323.59 26.9391 325.318 26.072C327.047 25.1688 329.027 24.6811 331.26 24.6088C333.78 24.6088 335.995 24.9159 337.903 25.5301C339.848 26.1443 341.558 26.903 343.035 27.8062L341.036 31.8164Z" fill="#1E1E1E"/>
<path d="M353.191 31.708H358.214V41.6794H364.372V45.6355H358.214V64.0067H353.191V45.6355H349.086V41.6794H353.191V31.708Z" fill="#1E1E1E"/>
<path d="M368.497 52.5721C368.497 50.3321 369.019 48.3089 370.063 46.5025C371.144 44.6961 372.62 43.2691 374.492 42.2213C376.365 41.1736 378.489 40.6498 380.866 40.6498C383.315 40.6498 385.457 41.1736 387.294 42.2213C389.13 43.2691 390.552 44.6961 391.561 46.5025C392.569 48.3089 393.073 50.3321 393.073 52.5721C393.073 54.812 392.569 56.8533 391.561 58.6958C390.552 60.5022 389.112 61.9293 387.24 62.977C385.403 64.0247 383.26 64.5486 380.812 64.5486C378.435 64.5486 376.311 64.0609 374.438 63.0854C372.602 62.0738 371.144 60.6829 370.063 58.9126C369.019 57.1062 368.497 54.9927 368.497 52.5721ZM373.52 52.6263C373.52 54.0714 373.844 55.3901 374.492 56.5823C375.141 57.7384 376.005 58.6597 377.085 59.3461C378.201 60.0326 379.426 60.3758 380.758 60.3758C382.162 60.3758 383.405 60.0326 384.485 59.3461C385.601 58.6597 386.465 57.7384 387.077 56.5823C387.69 55.3901 387.996 54.0714 387.996 52.6263C387.996 51.1811 387.69 49.8805 387.077 48.7244C386.465 47.5322 385.601 46.5928 384.485 45.9064C383.405 45.1838 382.162 44.8226 380.758 44.8226C379.39 44.8226 378.147 45.1838 377.031 45.9064C375.951 46.629 375.087 47.5864 374.438 48.7786C373.826 49.9347 373.52 51.2173 373.52 52.6263Z" fill="#1E1E1E"/>
<path d="M404.357 41.571L404.844 48.0741L404.574 47.207C405.15 45.8342 405.978 44.6781 407.058 43.7387C408.174 42.7633 409.327 42.0226 410.515 41.5168C411.739 40.9749 412.802 40.7039 413.702 40.7039L413.432 45.6896C411.739 45.5813 410.245 45.9064 408.949 46.6651C407.688 47.4238 406.68 48.4354 405.924 49.6999C405.204 50.9644 404.844 52.3192 404.844 53.7643V64.0067H399.874V41.571H404.357Z" fill="#1E1E1E"/>
<path d="M429.603 64.5486C427.047 64.5486 424.85 64.0428 423.014 63.0312C421.177 61.9835 419.755 60.5745 418.747 58.8042C417.774 56.9978 417.288 54.9385 417.288 52.6263C417.288 50.4224 417.846 48.4173 418.963 46.6109C420.079 44.8045 421.573 43.3594 423.446 42.2755C425.318 41.1917 427.407 40.6498 429.711 40.6498C432.664 40.6498 435.113 41.5168 437.057 43.251C439.002 44.9851 440.316 47.3696 441 50.4044L422.581 56.9075L421.393 53.9269L436.517 48.3993L435.437 49.1038C435.004 47.9115 434.284 46.8819 433.276 46.0148C432.268 45.1116 430.954 44.66 429.333 44.66C427.965 44.66 426.74 45.0032 425.66 45.6896C424.58 46.3399 423.734 47.2432 423.122 48.3993C422.509 49.5554 422.203 50.874 422.203 52.3553C422.203 53.9088 422.527 55.2817 423.176 56.4739C423.824 57.63 424.706 58.5513 425.822 59.2377C426.975 59.888 428.271 60.2132 429.711 60.2132C430.683 60.2132 431.62 60.0325 432.52 59.6713C433.456 59.31 434.32 58.8403 435.113 58.2623L437.435 62.0015C436.319 62.7602 435.059 63.3744 433.654 63.8441C432.286 64.3137 430.936 64.5486 429.603 64.5486Z" fill="#1E1E1E"/>
<path d="M159.93 75.1324H165.63V74.163H159.93V75.1324ZM159.93 80.6317H165.445V79.6624H159.93V80.6317ZM159.391 74.163V87.2123H160.413V74.163H159.391Z" fill="#1E1E1E"/>
<path d="M171.47 74.7595C171.47 74.9459 171.538 75.1075 171.674 75.2442C171.81 75.3809 171.971 75.4493 172.157 75.4493C172.355 75.4493 172.516 75.3809 172.639 75.2442C172.775 75.1075 172.844 74.9459 172.844 74.7595C172.844 74.5607 172.775 74.3991 172.639 74.2748C172.516 74.1381 172.355 74.0698 172.157 74.0698C171.971 74.0698 171.81 74.1381 171.674 74.2748C171.538 74.3991 171.47 74.5607 171.47 74.7595ZM171.674 78.6371V87.2123H172.639V78.6371H171.674Z" fill="#1E1E1E"/>
<path d="M184.512 81.6943V87.2123H185.478V81.5825C185.478 80.6255 185.243 79.8674 184.772 79.3082C184.302 78.7365 183.621 78.4506 182.73 78.4506C182.098 78.4506 181.541 78.6246 181.059 78.9726C180.588 79.3206 180.235 79.8053 180 80.4267V78.6371H179.035V87.2123H180V81.9926C180 81.4955 180.105 81.0481 180.316 80.6504C180.539 80.2527 180.836 79.942 181.207 79.7183C181.591 79.4822 182.024 79.3641 182.507 79.3641C183.2 79.3641 183.708 79.5692 184.03 79.9793C184.351 80.3894 184.512 80.9611 184.512 81.6943Z" fill="#1E1E1E"/>
<path d="M198.214 72.6716V87.2123H199.179V72.6716H198.214ZM190.916 82.9247C190.916 83.8444 191.102 84.6398 191.473 85.3109C191.845 85.982 192.34 86.4977 192.959 86.8582C193.59 87.2186 194.283 87.3988 195.038 87.3988C195.781 87.3988 196.419 87.2061 196.951 86.8209C197.483 86.4232 197.898 85.8888 198.195 85.2177C198.505 84.5341 198.659 83.7698 198.659 82.9247C198.659 82.0672 198.505 81.3029 198.195 80.6317C197.898 79.9606 197.483 79.4324 196.951 79.0472C196.419 78.6495 195.781 78.4506 195.038 78.4506C194.283 78.4506 193.59 78.6308 192.959 78.9913C192.34 79.3517 191.845 79.8674 191.473 80.5385C191.102 81.1972 190.916 81.9926 190.916 82.9247ZM191.9 82.9247C191.9 82.179 192.043 81.539 192.327 81.0046C192.625 80.4702 193.021 80.0663 193.516 79.7929C194.023 79.507 194.574 79.3641 195.168 79.3641C195.701 79.3641 196.196 79.5194 196.654 79.8301C197.124 80.1408 197.502 80.5634 197.787 81.0978C198.071 81.6322 198.214 82.2412 198.214 82.9247C198.214 83.6082 198.071 84.2172 197.787 84.7516C197.502 85.286 197.124 85.7086 196.654 86.0193C196.196 86.33 195.701 86.4853 195.168 86.4853C194.574 86.4853 194.023 86.3486 193.516 86.0752C193.021 85.7894 192.625 85.3792 192.327 84.8448C192.043 84.3104 191.9 83.6704 191.9 82.9247Z" fill="#1E1E1E"/>
<path d="M205.263 74.7595C205.263 74.9459 205.331 75.1075 205.467 75.2442C205.603 75.3809 205.764 75.4493 205.95 75.4493C206.148 75.4493 206.309 75.3809 206.432 75.2442C206.569 75.1075 206.637 74.9459 206.637 74.7595C206.637 74.5607 206.569 74.3991 206.432 74.2748C206.309 74.1381 206.148 74.0698 205.95 74.0698C205.764 74.0698 205.603 74.1381 205.467 74.2748C205.331 74.3991 205.263 74.5607 205.263 74.7595ZM205.467 78.6371V87.2123H206.432V78.6371H205.467Z" fill="#1E1E1E"/>
<path d="M218.305 81.6943V87.2123H219.271V81.5825C219.271 80.6255 219.036 79.8674 218.565 79.3082C218.095 78.7365 217.414 78.4506 216.523 78.4506C215.892 78.4506 215.334 78.6246 214.852 78.9726C214.381 79.3206 214.029 79.8053 213.793 80.4267V78.6371H212.828V87.2123H213.793V81.9926C213.793 81.4955 213.899 81.0481 214.109 80.6504C214.332 80.2527 214.629 79.942 215 79.7183C215.384 79.4822 215.817 79.3641 216.3 79.3641C216.993 79.3641 217.501 79.5692 217.823 79.9793C218.145 80.3894 218.305 80.9611 218.305 81.6943Z" fill="#1E1E1E"/>
<path d="M224.914 87.7716C224.914 88.5049 225.081 89.1511 225.415 89.7104C225.749 90.2821 226.213 90.7233 226.808 91.034C227.414 91.3447 228.107 91.5 228.887 91.5C229.605 91.5 230.274 91.3322 230.893 90.9967C231.512 90.6611 232.013 90.1578 232.397 89.4867C232.78 88.828 232.972 88.0077 232.972 87.0259V78.6371H232.007V87.0259C232.007 87.8462 231.852 88.5173 231.543 89.0393C231.245 89.5737 230.862 89.9651 230.391 90.2137C229.921 90.4623 229.42 90.5865 228.887 90.5865C228.293 90.5865 227.767 90.4623 227.309 90.2137C226.863 89.9651 226.517 89.6296 226.269 89.207C226.022 88.7845 225.898 88.306 225.898 87.7716H224.914ZM224.709 82.9247C224.709 83.8444 224.895 84.6398 225.266 85.3109C225.638 85.982 226.133 86.4977 226.752 86.8582C227.383 87.2186 228.076 87.3988 228.832 87.3988C229.574 87.3988 230.212 87.2061 230.744 86.8209C231.276 86.4232 231.691 85.8888 231.988 85.2177C232.298 84.5341 232.452 83.7698 232.452 82.9247C232.452 82.0672 232.298 81.3029 231.988 80.6317C231.691 79.9606 231.276 79.4324 230.744 79.0472C230.212 78.6495 229.574 78.4506 228.832 78.4506C228.076 78.4506 227.383 78.6308 226.752 78.9913C226.133 79.3517 225.638 79.8674 225.266 80.5385C224.895 81.1972 224.709 81.9926 224.709 82.9247ZM225.693 82.9247C225.693 82.179 225.836 81.539 226.121 81.0046C226.418 80.4702 226.814 80.0663 227.309 79.7929C227.816 79.507 228.367 79.3641 228.962 79.3641C229.358 79.3641 229.735 79.4573 230.094 79.6437C230.466 79.8177 230.794 80.0663 231.078 80.3894C231.375 80.7125 231.604 81.0854 231.765 81.5079C231.926 81.9305 232.007 82.3903 232.007 82.8874C232.007 83.5834 231.864 84.2048 231.58 84.7516C231.295 85.286 230.917 85.7086 230.447 86.0193C229.989 86.33 229.494 86.4853 228.962 86.4853C228.367 86.4853 227.816 86.3486 227.309 86.0752C226.814 85.7894 226.418 85.3792 226.121 84.8448C225.836 84.3104 225.693 83.6704 225.693 82.9247Z" fill="#1E1E1E"/>
<path d="M246.572 78.6371V79.5505H250.323V78.6371H246.572ZM247.965 75.6543V87.2123H248.93V75.6543H247.965Z" fill="#1E1E1E"/>
<path d="M256.167 72.6716H255.201V87.2123H256.167V72.6716ZM260.679 81.6943V87.2123H261.645V81.5825C261.645 80.9114 261.54 80.3459 261.329 79.8861C261.119 79.4138 260.809 79.0596 260.401 78.8235C259.992 78.5749 259.491 78.4506 258.897 78.4506C258.302 78.4506 257.776 78.606 257.318 78.9167C256.86 79.2274 256.495 79.6499 256.223 80.1843C255.963 80.7063 255.833 81.3091 255.833 81.9926H256.167C256.167 81.5079 256.272 81.0667 256.483 80.669C256.706 80.2713 257.003 79.9544 257.374 79.7183C257.758 79.4822 258.191 79.3641 258.674 79.3641C259.379 79.3641 259.887 79.5692 260.196 79.9793C260.518 80.3894 260.679 80.9611 260.679 81.6943Z" fill="#1E1E1E"/>
<path d="M271.038 87.3988C271.892 87.3988 272.635 87.2248 273.266 86.8768C273.91 86.5164 274.473 85.9633 274.956 85.2177L274.176 84.7143C273.792 85.3233 273.353 85.7707 272.858 86.0566C272.375 86.3424 271.806 86.4853 271.15 86.4853C270.531 86.4853 269.986 86.3362 269.516 86.0379C269.058 85.7396 268.699 85.3171 268.439 84.7703C268.191 84.2234 268.067 83.5834 268.067 82.8501C268.067 82.1293 268.197 81.5079 268.457 80.9859C268.717 80.4515 269.076 80.0414 269.534 79.7556C270.005 79.4573 270.555 79.3082 271.187 79.3082C271.731 79.3082 272.22 79.4387 272.654 79.6997C273.087 79.9606 273.427 80.321 273.675 80.7809C273.935 81.2407 274.065 81.7627 274.065 82.3468C274.065 82.4462 274.046 82.5519 274.009 82.6637C273.984 82.7631 273.96 82.8439 273.935 82.9061L274.343 82.3282H267.696V83.1671H275.068C275.08 83.1049 275.086 83.0303 275.086 82.9433C275.098 82.8563 275.105 82.7756 275.105 82.701C275.105 81.8683 274.938 81.1351 274.603 80.5013C274.281 79.855 273.823 79.3517 273.229 78.9913C272.647 78.6308 271.967 78.4506 271.187 78.4506C270.382 78.4506 269.67 78.6433 269.051 79.0285C268.432 79.4014 267.95 79.9233 267.603 80.5945C267.256 81.2656 267.083 82.0361 267.083 82.9061C267.083 83.776 267.25 84.5528 267.584 85.2363C267.931 85.9074 268.401 86.4356 268.996 86.8209C269.59 87.2061 270.271 87.3988 271.038 87.3988Z" fill="#1E1E1E"/>
<path d="M294.835 81.6943V87.2123H295.8V81.5825C295.8 80.6255 295.565 79.8674 295.095 79.3082C294.624 78.7365 293.944 78.4506 293.052 78.4506C292.421 78.4506 291.864 78.6246 291.381 78.9726C290.911 79.3206 290.558 79.8053 290.323 80.4267V78.6371H289.357V87.2123H290.323V81.9926C290.323 81.4955 290.428 81.0481 290.638 80.6504C290.861 80.2527 291.158 79.942 291.53 79.7183C291.914 79.4822 292.347 79.3641 292.83 79.3641C293.523 79.3641 294.03 79.5692 294.352 79.9793C294.674 80.3894 294.835 80.9611 294.835 81.6943Z" fill="#1E1E1E"/>
<path d="M301.239 82.9247C301.239 83.7822 301.431 84.5528 301.814 85.2363C302.198 85.9074 302.718 86.4356 303.374 86.8209C304.043 87.2061 304.792 87.3988 305.621 87.3988C306.45 87.3988 307.193 87.2061 307.849 86.8209C308.518 86.4356 309.044 85.9074 309.428 85.2363C309.811 84.5528 310.003 83.7822 310.003 82.9247C310.003 82.0547 309.811 81.2842 309.428 80.6131C309.044 79.942 308.518 79.4138 307.849 79.0285C307.193 78.6433 306.45 78.4506 305.621 78.4506C304.792 78.4506 304.043 78.6433 303.374 79.0285C302.718 79.4138 302.198 79.942 301.814 80.6131C301.431 81.2842 301.239 82.0547 301.239 82.9247ZM302.223 82.9247C302.223 82.2287 302.372 81.6135 302.669 81.0791C302.966 80.5447 303.368 80.1284 303.876 79.8301C304.395 79.5194 304.977 79.3641 305.621 79.3641C306.265 79.3641 306.84 79.5194 307.348 79.8301C307.868 80.1284 308.276 80.551 308.573 81.0978C308.87 81.6322 309.019 82.2412 309.019 82.9247C309.019 83.6207 308.87 84.2359 308.573 84.7703C308.276 85.3047 307.868 85.7272 307.348 86.0379C306.84 86.3362 306.265 86.4853 305.621 86.4853C304.977 86.4853 304.395 86.3362 303.876 86.0379C303.368 85.7272 302.966 85.3047 302.669 84.7703C302.372 84.2359 302.223 83.6207 302.223 82.9247Z" fill="#1E1E1E"/>
<path d="M320.918 81.6943V87.2123H321.883V81.5825C321.883 80.6255 321.648 79.8674 321.178 79.3082C320.707 78.7365 320.026 78.4506 319.135 78.4506C318.504 78.4506 317.947 78.6246 317.464 78.9726C316.994 79.3206 316.641 79.8053 316.406 80.4267V78.6371H315.44V87.2123H316.406V81.9926C316.406 81.4955 316.511 81.0481 316.721 80.6504C316.944 80.2527 317.241 79.942 317.613 79.7183C317.996 79.4822 318.43 79.3641 318.912 79.3641C319.606 79.3641 320.113 79.5692 320.435 79.9793C320.757 80.3894 320.918 80.9611 320.918 81.6943Z" fill="#1E1E1E"/>
<path d="M331.277 87.3988C332.131 87.3988 332.874 87.2248 333.505 86.8768C334.149 86.5164 334.712 85.9633 335.195 85.2177L334.415 84.7143C334.031 85.3233 333.592 85.7707 333.096 86.0566C332.614 86.3424 332.044 86.4853 331.388 86.4853C330.769 86.4853 330.225 86.3362 329.754 86.0379C329.296 85.7396 328.937 85.3171 328.677 84.7703C328.43 84.2234 328.306 83.5834 328.306 82.8501C328.306 82.1293 328.436 81.5079 328.696 80.9859C328.956 80.4515 329.315 80.0414 329.773 79.7556C330.243 79.4573 330.794 79.3082 331.425 79.3082C331.97 79.3082 332.459 79.4387 332.892 79.6997C333.325 79.9606 333.666 80.321 333.913 80.7809C334.173 81.2407 334.303 81.7627 334.303 82.3468C334.303 82.4462 334.285 82.5519 334.248 82.6637C334.223 82.7631 334.198 82.8439 334.173 82.9061L334.582 82.3282H327.934V83.1671H335.306C335.318 83.1049 335.325 83.0303 335.325 82.9433C335.337 82.8563 335.343 82.7756 335.343 82.701C335.343 81.8683 335.176 81.1351 334.842 80.5013C334.52 79.855 334.062 79.3517 333.468 78.9913C332.886 78.6308 332.205 78.4506 331.425 78.4506C330.621 78.4506 329.909 78.6433 329.29 79.0285C328.671 79.4014 328.188 79.9233 327.842 80.5945C327.495 81.2656 327.322 82.0361 327.322 82.9061C327.322 83.776 327.489 84.5528 327.823 85.2363C328.17 85.9074 328.64 86.4356 329.234 86.8209C329.828 87.2061 330.509 87.3988 331.277 87.3988Z" fill="#1E1E1E"/>
<path d="M345.168 78.6371L342.791 82.0299L340.415 78.6371H339.3L342.253 82.7942L339.115 87.2123H340.229L342.791 83.5585L345.354 87.2123H346.468L343.33 82.7942L346.282 78.6371H345.168Z" fill="#1E1E1E"/>
<path d="M351.264 74.7595C351.264 74.9459 351.332 75.1075 351.468 75.2442C351.604 75.3809 351.765 75.4493 351.951 75.4493C352.149 75.4493 352.31 75.3809 352.434 75.2442C352.57 75.1075 352.638 74.9459 352.638 74.7595C352.638 74.5607 352.57 74.3991 352.434 74.2748C352.31 74.1381 352.149 74.0698 351.951 74.0698C351.765 74.0698 351.604 74.1381 351.468 74.2748C351.332 74.3991 351.264 74.5607 351.264 74.7595ZM351.468 78.6371V87.2123H352.434V78.6371H351.468Z" fill="#1E1E1E"/>
<path d="M358.811 84.7703L358.031 85.2177C358.155 85.5781 358.346 85.9261 358.606 86.2616C358.879 86.5972 359.232 86.8706 359.665 87.0819C360.11 87.2931 360.63 87.3988 361.225 87.3988C362.042 87.3988 362.704 87.1689 363.211 86.709C363.731 86.2368 363.991 85.6278 363.991 84.8821C363.991 84.3974 363.867 83.9997 363.62 83.689C363.385 83.3783 363.069 83.1173 362.673 82.9061C362.289 82.6948 361.868 82.5022 361.41 82.3282C361.064 82.2039 360.736 82.0734 360.426 81.9367C360.117 81.8 359.869 81.626 359.683 81.4147C359.498 81.191 359.405 80.9114 359.405 80.5758C359.405 80.1657 359.547 79.855 359.832 79.6437C360.129 79.4324 360.488 79.3268 360.909 79.3268C361.478 79.3268 361.943 79.4635 362.302 79.7369C362.661 80.0103 362.939 80.3335 363.137 80.7063L363.936 80.2216C363.787 79.8985 363.577 79.6064 363.304 79.3455C363.032 79.0845 362.704 78.8732 362.32 78.7116C361.936 78.5501 361.503 78.4693 361.02 78.4693C360.575 78.4693 360.154 78.5501 359.758 78.7116C359.374 78.8608 359.058 79.0969 358.811 79.42C358.575 79.7431 358.458 80.1471 358.458 80.6317C358.458 81.1413 358.575 81.5576 358.811 81.8808C359.058 82.1915 359.368 82.44 359.739 82.6264C360.11 82.8129 360.494 82.9806 360.89 83.1298C361.262 83.2541 361.608 83.397 361.93 83.5585C362.252 83.7077 362.512 83.9003 362.71 84.1364C362.908 84.3601 363.007 84.646 363.007 84.994C363.007 85.4662 362.846 85.8391 362.524 86.1125C362.215 86.3735 361.8 86.504 361.28 86.504C360.835 86.504 360.445 86.4232 360.11 86.2616C359.789 86.1001 359.522 85.8888 359.312 85.6278C359.102 85.3668 358.934 85.081 358.811 84.7703Z" fill="#1E1E1E"/>
<path d="M368.268 78.6371V79.5505H372.019V78.6371H368.268ZM369.661 75.6543V87.2123H370.626V75.6543H369.661Z" fill="#1E1E1E"/>
<path d="M380.11 87.3988C380.964 87.3988 381.706 87.2248 382.338 86.8768C382.981 86.5164 383.545 85.9633 384.027 85.2177L383.248 84.7143C382.864 85.3233 382.424 85.7707 381.929 86.0566C381.446 86.3424 380.877 86.4853 380.221 86.4853C379.602 86.4853 379.057 86.3362 378.587 86.0379C378.129 85.7396 377.77 85.3171 377.51 84.7703C377.262 84.2234 377.139 83.5834 377.139 82.8501C377.139 82.1293 377.269 81.5079 377.529 80.9859C377.788 80.4515 378.147 80.0414 378.605 79.7556C379.076 79.4573 379.627 79.3082 380.258 79.3082C380.803 79.3082 381.292 79.4387 381.725 79.6997C382.158 79.9606 382.499 80.321 382.746 80.7809C383.006 81.2407 383.136 81.7627 383.136 82.3468C383.136 82.4462 383.118 82.5519 383.08 82.6637C383.056 82.7631 383.031 82.8439 383.006 82.9061L383.415 82.3282H376.767V83.1671H384.139C384.151 83.1049 384.157 83.0303 384.157 82.9433C384.17 82.8563 384.176 82.7756 384.176 82.701C384.176 81.8683 384.009 81.1351 383.675 80.5013C383.353 79.855 382.895 79.3517 382.301 78.9913C381.719 78.6308 381.038 78.4506 380.258 78.4506C379.453 78.4506 378.742 78.6433 378.123 79.0285C377.504 79.4014 377.021 79.9233 376.674 80.5945C376.328 81.2656 376.154 82.0361 376.154 82.9061C376.154 83.776 376.322 84.5528 376.656 85.2363C377.002 85.9074 377.473 86.4356 378.067 86.8209C378.661 87.2061 379.342 87.3988 380.11 87.3988Z" fill="#1E1E1E"/>
<path d="M395.09 81.6943V87.2123H396.055V81.5825C396.055 80.6255 395.82 79.8674 395.35 79.3082C394.879 78.7365 394.199 78.4506 393.307 78.4506C392.676 78.4506 392.119 78.6246 391.636 78.9726C391.166 79.3206 390.813 79.8053 390.578 80.4267V78.6371H389.612V87.2123H390.578V81.9926C390.578 81.4955 390.683 81.0481 390.893 80.6504C391.116 80.2527 391.413 79.942 391.785 79.7183C392.168 79.4822 392.602 79.3641 393.085 79.3641C393.778 79.3641 394.285 79.5692 394.607 79.9793C394.929 80.3894 395.09 80.9611 395.09 81.6943Z" fill="#1E1E1E"/>
<path d="M400.937 78.6371V79.5505H404.688V78.6371H400.937ZM402.329 75.6543V87.2123H403.295V75.6543H402.329Z" fill="#1E1E1E"/>
</svg>
