<svg width="128" height="35" viewBox="0 0 128 35" fill="none" xmlns="http://www.w3.org/2000/svg">
<path d="M25.115 15.0147H14.415C14.2824 15.0147 14.1552 15.0673 14.0615 15.1611C13.9677 15.2549 13.915 15.3821 13.915 15.5147V20.7467C13.915 20.8793 13.9677 21.0064 14.0615 21.1002C14.1552 21.194 14.2824 21.2467 14.415 21.2467H18.588V27.7467C18.588 27.7467 17.651 28.0667 15.058 28.0667C12.002 28.0667 7.73101 26.9507 7.73101 17.5587C7.73101 8.16566 12.179 6.92867 16.355 6.92867C19.969 6.92867 21.525 7.56466 22.517 7.87166C22.827 7.96566 23.117 7.65566 23.117 7.37966L24.31 2.32466C24.3119 2.24897 24.2955 2.17395 24.262 2.10602C24.2286 2.03809 24.1792 1.97929 24.118 1.93466C23.715 1.64666 21.261 0.274658 15.06 0.274658C7.91601 0.274658 0.588013 3.31266 0.588013 17.9247C0.588013 32.5347 8.97801 34.7117 16.048 34.7117C21.902 34.7117 25.453 32.2097 25.453 32.2097C25.599 32.1297 25.615 31.9247 25.615 31.8297V15.5137C25.615 15.3811 25.5623 15.2539 25.4686 15.1601C25.3748 15.0663 25.2476 15.0147 25.115 15.0147ZM79.766 1.52266H73.74C73.6743 1.52292 73.6092 1.53615 73.5486 1.56158C73.488 1.58702 73.4329 1.62415 73.3867 1.67088C73.3404 1.7176 73.3038 1.77298 73.279 1.83386C73.2542 1.89474 73.2416 1.95992 73.242 2.02567L73.244 13.6697H63.852V2.02567C63.8524 1.96 63.8399 1.89491 63.8151 1.83409C63.7903 1.77328 63.7538 1.71793 63.7077 1.67123C63.6615 1.62452 63.6066 1.58736 63.5461 1.56187C63.4856 1.53638 63.4207 1.52305 63.355 1.52266H57.33C57.2643 1.52292 57.1992 1.53615 57.1386 1.56158C57.078 1.58702 57.0229 1.62415 56.9767 1.67088C56.9304 1.7176 56.8938 1.77298 56.869 1.83386C56.8442 1.89474 56.8316 1.95992 56.832 2.02567V33.5557C56.832 33.8327 57.056 34.0587 57.33 34.0587H63.355C63.4208 34.0583 63.4858 34.0449 63.5464 34.0194C63.6069 33.9938 63.6619 33.9566 63.708 33.9097C63.7542 33.8629 63.7907 33.8075 63.8154 33.7465C63.8401 33.6856 63.8525 33.6204 63.852 33.5547V20.0687H73.244L73.228 33.5547C73.228 33.8327 73.452 34.0587 73.728 34.0587H79.766C79.8318 34.0583 79.8968 34.0449 79.9574 34.0194C80.0179 33.9938 80.0729 33.9566 80.119 33.9097C80.1652 33.8629 80.2017 33.8075 80.2264 33.7465C80.2511 33.6856 80.2635 33.6204 80.263 33.5547V2.02466C80.263 1.74666 80.043 1.52266 79.766 1.52266ZM32.6 2.23966C30.456 2.23966 28.716 3.99266 28.716 6.16266C28.716 8.32966 30.456 10.0877 32.6 10.0877C34.746 10.0877 36.485 8.32966 36.485 6.16266C36.485 3.99266 34.745 2.23966 32.6 2.23966ZM35.556 11.8477H29.55C29.274 11.8477 29.028 12.1317 29.028 12.4077V33.2597C29.028 33.8727 29.41 34.0547 29.904 34.0547H35.314C35.909 34.0547 36.054 33.7627 36.054 33.2497V26.9037V12.3507C36.0543 12.285 36.0416 12.2199 36.0167 12.1592C35.9918 12.0984 35.9552 12.0431 35.909 11.9965C35.8627 11.9499 35.8078 11.9129 35.7472 11.8875C35.6866 11.8621 35.6217 11.8479 35.556 11.8477ZM103.162 11.8947H97.182C97.1163 11.8952 97.0514 11.9086 96.991 11.9342C96.9305 11.9599 96.8757 11.9971 96.8296 12.0439C96.7836 12.0907 96.7472 12.1462 96.7225 12.207C96.6979 12.2679 96.6855 12.333 96.686 12.3987V27.8587C96.686 27.8587 95.166 28.9687 93.011 28.9687C90.856 28.9687 90.284 27.9917 90.284 25.8807V12.3987C90.2845 12.3329 90.2721 12.2677 90.2474 12.2068C90.2227 12.1459 90.1862 12.0904 90.14 12.0436C90.0939 11.9968 90.0389 11.9595 89.9784 11.934C89.9178 11.9084 89.8528 11.8951 89.787 11.8947H83.719C83.5862 11.8957 83.4593 11.9493 83.3659 12.0438C83.2726 12.1383 83.2205 12.2659 83.221 12.3987V26.9007C83.221 33.1707 86.716 34.7047 91.523 34.7047C95.467 34.7047 98.647 32.5247 98.647 32.5247C98.647 32.5247 98.797 33.6747 98.867 33.8097C98.937 33.9457 99.114 34.0827 99.307 34.0827L103.167 34.0657C103.233 34.0654 103.298 34.0522 103.359 34.0267C103.42 34.0012 103.475 33.964 103.521 33.9172C103.568 33.8704 103.605 33.8149 103.63 33.7539C103.655 33.6929 103.667 33.6276 103.667 33.5617L103.664 12.3957C103.663 12.263 103.611 12.1359 103.517 12.042C103.424 11.948 103.297 11.8947 103.164 11.8937L103.162 11.8947ZM119.504 11.1867C116.108 11.1867 113.798 12.7017 113.798 12.7017V2.02466C113.798 1.959 113.786 1.89391 113.761 1.83309C113.736 1.77228 113.7 1.71694 113.654 1.67023C113.608 1.62352 113.553 1.58636 113.492 1.56087C113.432 1.53538 113.367 1.52205 113.301 1.52166H107.26C107.194 1.52166 107.129 1.53469 107.068 1.56001C107.007 1.58532 106.952 1.62242 106.905 1.66917C106.859 1.71591 106.822 1.77139 106.797 1.8324C106.772 1.89341 106.76 1.95875 106.76 2.02466V33.5547C106.76 33.6206 106.772 33.6859 106.797 33.7469C106.822 33.8079 106.859 33.8634 106.905 33.9102C106.952 33.9569 107.007 33.994 107.068 34.0193C107.129 34.0446 107.194 34.0577 107.26 34.0577H111.452C111.642 34.0577 111.784 33.9607 111.889 33.7897C111.992 33.6197 112.143 32.3357 112.143 32.3357C112.143 32.3357 114.613 34.6757 119.291 34.6757C124.781 34.6757 127.931 31.8917 127.931 22.1737C127.931 12.4557 122.901 11.1857 119.503 11.1857L119.504 11.1867ZM117.144 28.9507C115.071 28.8877 113.664 27.9467 113.664 27.9467V17.9617C113.664 17.9617 115.052 17.1117 116.754 16.9577C118.907 16.7647 120.982 17.4157 120.982 22.5517C120.982 27.9687 120.047 29.0377 117.145 28.9497L117.144 28.9507ZM53.455 28.8327C53.192 28.8327 52.518 28.9397 51.825 28.9397C49.605 28.9397 48.852 27.9077 48.852 26.5717V17.7057H53.372C53.438 17.7057 53.5034 17.6926 53.5643 17.6672C53.6252 17.6418 53.6805 17.6047 53.727 17.5578C53.7735 17.5109 53.8102 17.4554 53.8351 17.3942C53.86 17.3331 53.8725 17.2677 53.872 17.2017V12.3457C53.8723 12.2798 53.8595 12.2146 53.8345 12.1537C53.8095 12.0928 53.7727 12.0375 53.7263 11.9908C53.6798 11.9442 53.6246 11.9072 53.5638 11.8819C53.503 11.8567 53.4378 11.8437 53.372 11.8437H48.852L48.845 5.87366C48.845 5.64666 48.729 5.53366 48.467 5.53366H42.307C42.069 5.53366 41.94 5.63966 41.94 5.86866V12.0387C41.94 12.0387 38.853 12.7837 38.645 12.8437C38.5412 12.874 38.4499 12.9371 38.385 13.0237C38.3201 13.1102 38.285 13.2155 38.285 13.3237V17.2007C38.2846 17.2663 38.2972 17.3314 38.3219 17.3922C38.3467 17.453 38.3832 17.5084 38.4293 17.5551C38.4755 17.6018 38.5304 17.639 38.5909 17.6645C38.6514 17.69 38.7164 17.7033 38.782 17.7037H41.94V27.0317C41.94 33.9617 46.8 34.6417 50.08 34.6417C51.577 34.6417 53.37 34.1617 53.666 34.0517C53.846 33.9847 53.949 33.7997 53.949 33.5987L53.953 29.3337C53.951 29.2015 53.8977 29.0753 53.8044 28.9817C53.7111 28.888 53.5852 28.8342 53.453 28.8317L53.455 28.8327Z" fill="white"/>
</svg>
