<svg width="234" height="46" viewBox="0 0 234 46" fill="none" xmlns="http://www.w3.org/2000/svg">
<path d="M53.0659 19.6031C52.2876 8.63385 44.6815 0 35.3773 0C26.0731 0 18.4669 8.63385 17.6886 19.6031C7.07546 22.0446 0 26.5385 0 31.8462C0 39.6662 15.9198 46 35.3773 46C54.8348 46 70.7546 39.6662 70.7546 31.8462C70.7546 26.5385 63.6791 22.0446 53.0659 19.6031ZM45.7428 24.2031C39.0212 24.9462 31.7334 24.9462 25.0117 24.2031C24.8702 23.2123 24.7641 22.2215 24.7641 21.2308C24.7641 13.4462 29.54 7.07692 35.3773 7.07692C41.2145 7.07692 45.9905 13.4462 45.9905 21.2308C45.9905 22.2215 45.9905 23.2123 45.7428 24.2031Z" fill="#6C34E3"/>
<path d="M84.4828 12.9558H96.7779V15.64H87.2628V22.3073H95.6029V24.9627H87.2628V33.8235H84.4828V12.9558Z" fill="black"/>
<path d="M100.197 21.8744H102.862V33.8235H100.197V21.8744ZM99.9962 17.5449C99.9962 17.1216 100.159 16.7656 100.483 16.477C100.827 16.1884 101.2 16.0441 101.601 16.0441C102.002 16.0441 102.356 16.1884 102.662 16.477C102.986 16.7656 103.149 17.1216 103.149 17.5449C103.149 17.9875 102.986 18.3531 102.662 18.6417C102.356 18.9111 102.002 19.0458 101.601 19.0458C101.2 19.0458 100.827 18.9015 100.483 18.6129C100.159 18.3242 99.9962 17.9683 99.9962 17.5449Z" fill="black"/>
<path d="M117.104 32.7267C116.569 33.1501 115.928 33.4868 115.183 33.7369C114.438 33.9871 113.693 34.1122 112.948 34.1122C111.649 34.1122 110.512 33.8524 109.537 33.3329C108.563 32.8133 107.799 32.0918 107.244 31.1682C106.709 30.2253 106.442 29.1189 106.442 27.8489C106.442 26.579 106.729 25.4726 107.302 24.5297C107.894 23.5869 108.658 22.8653 109.595 22.365C110.55 21.8455 111.572 21.5857 112.661 21.5857C113.617 21.5857 114.467 21.7204 115.212 21.9898C115.976 22.2592 116.626 22.6248 117.161 23.0866L115.843 24.8184C115.499 24.549 115.078 24.3084 114.581 24.0968C114.085 23.8851 113.521 23.7793 112.891 23.7793C112.203 23.7793 111.563 23.9621 110.97 24.3277C110.397 24.674 109.939 25.1551 109.595 25.7708C109.27 26.3866 109.107 27.0793 109.107 27.8489C109.107 28.5801 109.279 29.2632 109.623 29.8982C109.967 30.5139 110.445 31.0046 111.056 31.3702C111.668 31.7165 112.365 31.8897 113.148 31.8897C113.664 31.8897 114.132 31.8128 114.553 31.6588C114.992 31.5049 115.384 31.2932 115.728 31.0238L117.104 32.7267Z" fill="black"/>
<path d="M121.691 16.6213H124.356V21.9321H127.623V24.0391H124.356V33.8235H121.691V24.0391H119.513V21.9321H121.691V16.6213Z" fill="black"/>
<path d="M130.844 21.8744H133.509V33.8235H130.844V21.8744ZM130.643 17.5449C130.643 17.1216 130.806 16.7656 131.131 16.477C131.475 16.1884 131.847 16.0441 132.248 16.0441C132.65 16.0441 133.003 16.1884 133.309 16.477C133.634 16.7656 133.796 17.1216 133.796 17.5449C133.796 17.9875 133.634 18.3531 133.309 18.6417C133.003 18.9111 132.65 19.0458 132.248 19.0458C131.847 19.0458 131.475 18.9015 131.131 18.6129C130.806 18.3242 130.643 17.9683 130.643 17.5449Z" fill="black"/>
<path d="M137.089 27.7335C137.089 26.5405 137.366 25.463 137.92 24.5009C138.494 23.5388 139.277 22.7787 140.271 22.2207C141.264 21.6627 142.391 21.3837 143.652 21.3837C144.952 21.3837 146.089 21.6627 147.063 22.2207C148.037 22.7787 148.792 23.5388 149.327 24.5009C149.862 25.463 150.13 26.5405 150.13 27.7335C150.13 28.9265 149.862 30.0136 149.327 30.995C148.792 31.9571 148.028 32.7171 147.034 33.2751C146.06 33.8331 144.923 34.1122 143.624 34.1122C142.363 34.1122 141.235 33.8524 140.242 33.3329C139.267 32.7941 138.494 32.0533 137.92 31.1104C137.366 30.1483 137.089 29.0227 137.089 27.7335ZM139.755 27.7624C139.755 28.532 139.927 29.2344 140.271 29.8693C140.614 30.4851 141.073 30.9757 141.646 31.3413C142.239 31.7069 142.888 31.8897 143.595 31.8897C144.34 31.8897 144.999 31.7069 145.573 31.3413C146.165 30.9757 146.624 30.4851 146.948 29.8693C147.273 29.2344 147.436 28.532 147.436 27.7624C147.436 26.9927 147.273 26.3 146.948 25.6842C146.624 25.0493 146.165 24.549 145.573 24.1834C144.999 23.7985 144.34 23.6061 143.595 23.6061C142.869 23.6061 142.21 23.7985 141.618 24.1834C141.044 24.5682 140.586 25.0781 140.242 25.7131C139.917 26.3288 139.755 27.0119 139.755 27.7624Z" fill="black"/>
<path d="M156.117 21.8744L156.347 24.7895L156.232 24.3277C156.614 23.4426 157.235 22.7402 158.095 22.2207C158.955 21.6819 159.948 21.4125 161.076 21.4125C162.203 21.4125 163.12 21.7493 163.827 22.4227C164.553 23.077 164.926 23.9332 164.945 24.9915V33.8235H162.251V25.944C162.231 25.2898 162.04 24.7606 161.677 24.3565C161.333 23.9332 160.789 23.7216 160.044 23.7216C159.356 23.7216 158.735 23.914 158.181 24.2988C157.627 24.6837 157.187 25.2128 156.862 25.8863C156.557 26.5597 156.404 27.339 156.404 28.2242V33.8235H153.739V21.8744H156.117Z" fill="black"/>
<path d="M180.958 16.6791C180.251 16.3135 179.477 15.996 178.637 15.7266C177.796 15.4572 176.974 15.3225 176.172 15.3225C175.064 15.3225 174.175 15.5823 173.506 16.1018C172.857 16.6213 172.532 17.314 172.532 18.1799C172.532 18.8341 172.742 19.3922 173.162 19.854C173.583 20.2965 174.137 20.6814 174.825 21.0085C175.513 21.3356 176.229 21.6434 176.974 21.9321C177.624 22.1822 178.264 22.4612 178.894 22.7691C179.525 23.077 180.089 23.4618 180.585 23.9236C181.101 24.3854 181.503 24.953 181.789 25.6265C182.095 26.3 182.248 27.137 182.248 28.1376C182.248 29.2344 181.971 30.2349 181.417 31.1393C180.882 32.0437 180.108 32.7556 179.095 33.2751C178.082 33.7947 176.879 34.0544 175.484 34.0544C174.567 34.0544 173.688 33.9486 172.847 33.7369C172.026 33.5253 171.261 33.2559 170.554 32.9288C169.847 32.5824 169.217 32.2265 168.663 31.8609L169.895 29.6673C170.354 29.9944 170.879 30.3119 171.471 30.6198C172.064 30.9084 172.685 31.1489 173.334 31.3413C173.984 31.5145 174.615 31.6011 175.226 31.6011C175.876 31.6011 176.516 31.4856 177.146 31.2547C177.796 31.0046 178.331 30.6294 178.751 30.1291C179.172 29.6288 179.382 28.965 179.382 28.1376C179.382 27.4256 179.191 26.8387 178.808 26.3769C178.445 25.8959 177.958 25.4918 177.347 25.1647C176.735 24.8184 176.086 24.5105 175.398 24.2411C174.748 23.991 174.089 23.7216 173.42 23.4329C172.752 23.1251 172.131 22.7595 171.557 22.3362C170.984 21.8936 170.526 21.3548 170.182 20.7198C169.838 20.0849 169.666 19.3152 169.666 18.4108C169.666 17.314 169.924 16.3616 170.44 15.5534C170.975 14.726 171.701 14.0814 172.618 13.6196C173.535 13.1386 174.586 12.8788 175.771 12.8403C177.108 12.8403 178.283 13.0039 179.296 13.331C180.327 13.6581 181.235 14.0622 182.018 14.5432L180.958 16.6791Z" fill="black"/>
<path d="M187.407 16.6213H190.073V21.9321H193.34V24.0391H190.073V33.8235H187.407V24.0391H185.229V21.9321H187.407V16.6213Z" fill="black"/>
<path d="M195.529 27.7335C195.529 26.5405 195.806 25.463 196.36 24.5009C196.933 23.5388 197.717 22.7787 198.71 22.2207C199.704 21.6627 200.831 21.3837 202.092 21.3837C203.391 21.3837 204.528 21.6627 205.503 22.2207C206.477 22.7787 207.232 23.5388 207.767 24.5009C208.302 25.463 208.569 26.5405 208.569 27.7335C208.569 28.9265 208.302 30.0136 207.767 30.995C207.232 31.9571 206.468 32.7171 205.474 33.2751C204.5 33.8331 203.363 34.1122 202.063 34.1122C200.802 34.1122 199.675 33.8524 198.682 33.3329C197.707 32.7941 196.933 32.0533 196.36 31.1104C195.806 30.1483 195.529 29.0227 195.529 27.7335ZM198.194 27.7624C198.194 28.532 198.366 29.2344 198.71 29.8693C199.054 30.4851 199.513 30.9757 200.086 31.3413C200.678 31.7069 201.328 31.8897 202.035 31.8897C202.78 31.8897 203.439 31.7069 204.012 31.3413C204.605 30.9757 205.063 30.4851 205.388 29.8693C205.713 29.2344 205.875 28.532 205.875 27.7624C205.875 26.9927 205.713 26.3 205.388 25.6842C205.063 25.0493 204.605 24.549 204.012 24.1834C203.439 23.7985 202.78 23.6061 202.035 23.6061C201.309 23.6061 200.65 23.7985 200.057 24.1834C199.484 24.5682 199.025 25.0781 198.682 25.7131C198.357 26.3288 198.194 27.0119 198.194 27.7624Z" fill="black"/>
<path d="M214.557 21.8744L214.815 25.3379L214.672 24.8761C214.977 24.1449 215.417 23.5292 215.99 23.0289C216.582 22.5093 217.194 22.1149 217.824 21.8455C218.474 21.5569 219.038 21.4125 219.515 21.4125L219.372 24.0679C218.474 24.0102 217.681 24.1834 216.993 24.5874C216.324 24.9915 215.789 25.5303 215.388 26.2038C215.006 26.8772 214.815 27.5988 214.815 28.3685V33.8235H212.178V21.8744H214.557Z" fill="black"/>
<path d="M227.953 34.1122C226.596 34.1122 225.431 33.8428 224.456 33.304C223.482 32.746 222.727 31.9956 222.192 31.0527C221.676 30.0906 221.418 28.9938 221.418 27.7624C221.418 26.5886 221.714 25.5207 222.307 24.5586C222.899 23.5965 223.692 22.8268 224.685 22.2496C225.679 21.6723 226.787 21.3837 228.01 21.3837C229.577 21.3837 230.876 21.8455 231.908 22.7691C232.94 23.6927 233.637 24.9627 234 26.579L224.227 30.0425L223.596 28.4551L231.621 25.5111L231.048 25.8863C230.819 25.2513 230.437 24.7029 229.902 24.2411C229.367 23.7601 228.669 23.5195 227.809 23.5195C227.083 23.5195 226.434 23.7023 225.861 24.0679C225.287 24.4143 224.838 24.8953 224.513 25.5111C224.189 26.1268 224.026 26.8291 224.026 27.618C224.026 28.4454 224.198 29.1766 224.542 29.8116C224.886 30.4273 225.354 30.918 225.947 31.2836C226.558 31.63 227.246 31.8031 228.01 31.8031C228.526 31.8031 229.023 31.7069 229.5 31.5145C229.997 31.3221 230.456 31.072 230.876 30.7641L232.108 32.7556C231.516 33.1597 230.847 33.4868 230.102 33.7369C229.376 33.9871 228.66 34.1122 227.953 34.1122Z" fill="black"/>
</svg>
