<svg width="19" height="19" viewBox="0 0 19 19" fill="none" xmlns="http://www.w3.org/2000/svg">
<path d="M18.6485 3.95636L11.8628 0.148655C11.7626 0.0924164 11.6501 0.0629272 11.5357 0.0629272C11.4214 0.0629272 11.3088 0.0924164 11.2086 0.148655L4.42293 3.95636C4.31654 4.01612 4.22782 4.10392 4.16603 4.21059C4.10424 4.31727 4.07164 4.43891 4.07164 4.56282C4.07164 4.68673 4.10424 4.80837 4.16603 4.91504C4.22782 5.02172 4.31654 5.10952 4.42293 5.16928L10.8571 8.77967V16.2005L8.797 15.0444L8.14286 16.2566L11.2086 17.977C11.3088 18.0334 11.4213 18.0629 11.5357 18.0629C11.6501 18.0629 11.7626 18.0334 11.8628 17.977L18.6485 14.1693C18.7549 14.1096 18.8437 14.0218 18.9055 13.9151C18.9674 13.8084 19 13.6868 19 13.5628V4.56282C19 4.43889 18.9674 4.31723 18.9055 4.21056C18.8437 4.10388 18.7549 4.01609 18.6485 3.95636ZM11.5357 1.54574L16.9134 4.56282L11.5357 7.5799L6.15804 4.56282L11.5357 1.54574ZM17.6429 13.1537L12.2143 16.1998V8.77898L17.6429 5.73282V13.1537Z" fill="black"/>
<path d="M5.42857 9.06283H0V7.67821H5.42857V9.06283ZM6.78571 14.6013H1.35714V13.2167H6.78571V14.6013ZM8.14286 11.8321H2.71429V10.4474H8.14286V11.8321Z" fill="black"/>
</svg>
