<svg width="360" height="676" viewBox="0 0 360 676" fill="none" xmlns="http://www.w3.org/2000/svg">
<path d="M245.75 45.25H256.25M245.75 41.25H256.25M245.75 37.25H256.25" stroke="black" stroke-width="1.5" stroke-linecap="round" stroke-linejoin="round"/>
<rect x="-230" y="-203" width="820" height="820" rx="410" stroke="black" stroke-opacity="0.17" stroke-width="2" stroke-linejoin="round" stroke-dasharray="20 20"/>
<rect x="-152.551" y="-125.55" width="665.101" height="665.101" rx="332.55" stroke="black" stroke-opacity="0.17" stroke-width="2" stroke-linejoin="round" stroke-dasharray="20 20"/>
<circle cx="48" cy="551" r="5" fill="#6C34E3"/>
<circle cx="148" cy="602" r="2" fill="#6C34E3"/>
<circle cx="305" cy="581" r="4" fill="#6C34E3"/>
<circle cx="222" cy="511" r="3" fill="#6C34E3"/>
<circle cx="321" cy="478" r="2" fill="#6C34E3"/>
<circle cx="121" cy="464" r="5" fill="#6C34E3"/>
<circle cx="292.5" cy="422.5" r="3.5" fill="#6C34E3"/>
<circle cx="332.5" cy="268.5" r="2.5" fill="#6C34E3"/>
<circle cx="33" cy="110" r="5" fill="#6C34E3"/>
<circle cx="174.5" cy="125.5" r="1.5" fill="#6C34E3"/>
<circle cx="20.5" cy="255.5" r="1.5" fill="#6C34E3"/>
<circle cx="321" cy="152" r="2" fill="#6C34E3"/>
<circle cx="35" cy="419" r="2" fill="#6C34E3"/>
<circle cx="272" cy="671" r="5" fill="#6C34E3"/>
<circle cx="66" cy="654" r="2" fill="#6C34E3"/>
</svg>
