<svg width="21" height="20" viewBox="0 0 21 20" fill="none" xmlns="http://www.w3.org/2000/svg">
<path d="M9.71304 2.03827C9.98503 1.3209 11.0143 1.3209 11.2872 2.03827L13.0466 6.91195C13.108 7.07072 13.2161 7.20713 13.3566 7.30319C13.4971 7.39925 13.6634 7.45043 13.8337 7.44998H18.1574C18.9564 7.44998 19.3049 8.44444 18.6767 8.93146L15.5999 11.6998C15.462 11.8057 15.3613 11.9526 15.3122 12.1194C15.263 12.2861 15.2679 12.4642 15.3262 12.628L16.4498 17.3903C16.7235 18.1553 15.8379 18.8123 15.1681 18.3414L10.9888 15.6895C10.8457 15.5889 10.675 15.535 10.5001 15.535C10.3252 15.535 10.1545 15.5889 10.0114 15.6895L5.83211 18.3414C5.16319 18.8123 4.27668 18.1544 4.55037 17.3903L5.67402 12.628C5.73231 12.4642 5.73722 12.2861 5.68805 12.1194C5.63888 11.9526 5.53816 11.8057 5.40033 11.6998L2.32347 8.93146C1.69449 8.44444 2.04468 7.44998 2.84194 7.44998H7.1657C7.33594 7.45055 7.50234 7.39941 7.64288 7.30334C7.78343 7.20726 7.89149 7.07078 7.95277 6.91195L9.71304 2.03827Z" fill="#7C67FF" stroke="#7C67FF" stroke-width="2" stroke-miterlimit="1" stroke-linecap="round"/>
</svg>
