<svg width="57" height="57" viewBox="0 0 57 57" fill="none" xmlns="http://www.w3.org/2000/svg">
<path d="M1.89999 11.3907C0.850246 11.3907 0 12.241 0 13.2907V15.1907C0 16.0837 0.622247 16.8294 1.45349 17.0337C1.59599 17.0669 1.74799 17.0907 1.89999 17.0907H3.80473C3.80473 17.2237 8.31246 40.2943 8.31246 40.2943C8.48346 41.1683 9.1912 41.7953 10.0129 41.7953H39.9283L44.7733 17.0907H46.8965V17.0337L47.495 15.1907V11.3907H1.89999Z" fill="url(#paint0_linear_102_875)"/>
<path d="M0 15.1907C0 16.0837 0.622247 16.8294 1.45349 17.0337H46.9013L47.4998 15.1907H0Z" fill="#F57C00"/>
<path d="M7.85643 21.0997L11.2337 36.3044C11.3287 36.7414 11.7134 37.0501 12.1599 37.0501H14.2499C14.7724 37.0501 15.1999 36.6226 15.1999 36.1001V20.8954C15.1999 20.3729 14.7724 19.9455 14.2499 19.9455H8.78268C8.17468 19.9455 7.72343 20.5059 7.85643 21.0997Z" fill="#F57C00"/>
<path d="M37.7433 21.0997L34.3661 36.3044C34.2711 36.7414 33.8863 37.0501 33.4398 37.0501H31.3498C30.8273 37.0501 30.3998 36.6226 30.3998 36.1001V20.8954C30.3998 20.3729 30.8273 19.9455 31.3498 19.9455H36.8171C37.4203 19.9455 37.8763 20.5059 37.7433 21.0997Z" fill="#F57C00"/>
<path d="M20.0592 19.9455H25.5359C26.1011 19.9455 26.5429 20.4394 26.4811 20.9999L24.7949 36.1999C24.7427 36.6796 24.3342 37.0454 23.8497 37.0454H21.7502C21.2657 37.0454 20.8572 36.6796 20.8049 36.1999L19.1139 20.9952C19.0522 20.4347 19.4939 19.9455 20.0592 19.9455Z" fill="#F57C00"/>
<path d="M49.6515 1.70551C48.5305 2.08076 47.6613 2.9785 47.324 4.109L36.1806 41.2538C36.0428 41.7193 36.0856 42.2181 36.2993 42.6503L38.0378 46.1273C38.3561 46.759 37.8953 47.5048 37.1876 47.5048H3.79999C2.6885 47.5048 1.80025 48.4595 1.9095 49.59C2.0045 50.578 2.888 51.3048 3.88074 51.3048H41.7285C42.1893 51.3048 42.6548 51.167 43.011 50.8725C43.714 50.2835 43.885 49.324 43.5003 48.5545L40.8166 43.1918C40.3131 42.1896 40.2133 41.0306 40.5363 39.9571L50.7915 5.76199C50.8628 5.51499 51.0338 5.32024 51.257 5.20149L49.68 1.70076L49.6515 1.70551Z" fill="url(#paint1_linear_102_875)"/>
<path d="M56.7384 0.92654C56.2872 0.138044 55.3135 -0.184955 54.4537 0.104794L49.6847 1.69604L51.2617 5.19677C51.3092 5.17302 51.352 5.14452 51.4042 5.13027L55.6982 3.69578C56.8192 3.32053 57.3607 2.00953 56.7384 0.92654Z" fill="#F57C00"/>
<path d="M11.3999 57C13.4986 57 15.1999 55.2987 15.1999 53.2C15.1999 51.1013 13.4986 49.4 11.3999 49.4C9.30127 49.4 7.59996 51.1013 7.59996 53.2C7.59996 55.2987 9.30127 57 11.3999 57Z" fill="#37474F"/>
<path d="M36.0998 57C38.1985 57 39.8998 55.2987 39.8998 53.2C39.8998 51.1013 38.1985 49.4 36.0998 49.4C34.0011 49.4 32.2998 51.1013 32.2998 53.2C32.2998 55.2987 34.0011 57 36.0998 57Z" fill="#37474F"/>
<path d="M12.3499 55.1H10.4499C9.92745 55.1 9.49995 54.6725 9.49995 54.15V49.4H13.2999V54.15C13.2999 54.6725 12.8724 55.1 12.3499 55.1Z" fill="#B0BEC5"/>
<path d="M11.3999 53.2C11.9246 53.2 12.3499 52.7747 12.3499 52.25C12.3499 51.7254 11.9246 51.3 11.3999 51.3C10.8753 51.3 10.4499 51.7254 10.4499 52.25C10.4499 52.7747 10.8753 53.2 11.3999 53.2Z" fill="#FAFAFA"/>
<path d="M37.0498 55.1H35.1498C34.6273 55.1 34.1998 54.6725 34.1998 54.15V49.4H37.9998V54.15C37.9998 54.6725 37.5723 55.1 37.0498 55.1Z" fill="#B0BEC5"/>
<path d="M36.0998 53.2C36.6245 53.2 37.0498 52.7747 37.0498 52.25C37.0498 51.7254 36.6245 51.3 36.0998 51.3C35.5751 51.3 35.1498 51.7254 35.1498 52.25C35.1498 52.7747 35.5751 53.2 36.0998 53.2Z" fill="#FAFAFA"/>
<defs>
<linearGradient id="paint0_linear_102_875" x1="28.5025" y1="-1.4417" x2="28.5025" y2="61.9707" gradientUnits="userSpaceOnUse">
<stop stop-color="#FFA726"/>
<stop offset="1" stop-color="#FB8C00"/>
</linearGradient>
<linearGradient id="paint1_linear_102_875" x1="28.5016" y1="-10.364" x2="28.5016" y2="66.3008" gradientUnits="userSpaceOnUse">
<stop stop-color="#90A4AE"/>
<stop offset="1" stop-color="#607D8B"/>
</linearGradient>
</defs>
</svg>
