<svg width="67" height="67" viewBox="0 0 67 67" fill="none" xmlns="http://www.w3.org/2000/svg">
<path d="M33.5 0C42.3848 0 50.9056 3.52945 57.1881 9.81192C63.4705 16.0944 67 24.6152 67 33.5C67 42.3848 63.4705 50.9056 57.1881 57.1881C50.9056 63.4705 42.3848 67 33.5 67C24.6152 67 16.0944 63.4705 9.81192 57.1881C3.52945 50.9056 0 42.3848 0 33.5C0 24.6152 3.52945 16.0944 9.81192 9.81192C16.0944 3.52945 24.6152 0 33.5 0ZM18.8438 31.4062C18.2885 31.4062 17.7559 31.6268 17.3632 32.0195C16.9706 32.4122 16.75 32.9447 16.75 33.5C16.75 34.0553 16.9706 34.5879 17.3632 34.9805C17.7559 35.3732 18.2885 35.5938 18.8438 35.5938H43.1019L34.1114 44.5801C33.9167 44.7748 33.7623 45.0059 33.6569 45.2602C33.5516 45.5146 33.4974 45.7872 33.4974 46.0625C33.4974 46.3378 33.5516 46.6104 33.6569 46.8648C33.7623 47.1191 33.9167 47.3502 34.1114 47.5449C34.306 47.7395 34.5371 47.894 34.7915 47.9993C35.0458 48.1047 35.3184 48.1589 35.5938 48.1589C35.8691 48.1589 36.1417 48.1047 36.396 47.9993C36.6504 47.894 36.8815 47.7395 37.0761 47.5449L49.6386 34.9824C49.8336 34.7879 49.9883 34.5568 50.0939 34.3025C50.1994 34.0481 50.2537 33.7754 50.2537 33.5C50.2537 33.2246 50.1994 32.9519 50.0939 32.6975C49.9883 32.4432 49.8336 32.2121 49.6386 32.0176L37.0761 19.4551C36.8815 19.2605 36.6504 19.106 36.396 19.0007C36.1417 18.8953 35.8691 18.8411 35.5938 18.8411C35.3184 18.8411 35.0458 18.8953 34.7915 19.0007C34.5371 19.106 34.306 19.2605 34.1114 19.4551C33.9167 19.6498 33.7623 19.8809 33.6569 20.1352C33.5516 20.3896 33.4974 20.6622 33.4974 20.9375C33.4974 21.2128 33.5516 21.4854 33.6569 21.7398C33.7623 21.9941 33.9167 22.2252 34.1114 22.4199L43.1019 31.4062H18.8438Z" fill="url(#paint0_linear_8_289)"/>
<defs>
<linearGradient id="paint0_linear_8_289" x1="59.5" y1="11.5" x2="8.5" y2="51" gradientUnits="userSpaceOnUse">
<stop stop-color="#7C67FF"/>
<stop offset="1" stop-color="#9D8EFF"/>
</linearGradient>
</defs>
</svg>
