<svg width="21" height="20" viewBox="0 0 21 20" fill="none" xmlns="http://www.w3.org/2000/svg">
<path d="M3.93907 5H17.1493C17.417 5.00001 17.6817 5.05857 17.9264 5.17191C18.171 5.28524 18.3902 5.45083 18.5698 5.65801C18.7495 5.86519 18.8855 6.10936 18.9692 6.37478C19.0528 6.64019 19.0823 6.92097 19.0557 7.199L18.4809 13.199C18.4336 13.6925 18.2124 14.1501 17.8601 14.4829C17.5078 14.8157 17.0497 15 16.5746 15H7.42604C6.98296 15.0002 6.55351 14.84 6.21082 14.5469C5.86812 14.2537 5.63337 13.8456 5.54652 13.392L3.93907 5ZM3.93907 5L3.16312 1.757C3.11122 1.54075 2.9916 1.34881 2.82324 1.21166C2.65489 1.0745 2.44745 1.00001 2.2339 1H1.06519M6.81295 19H8.72887M14.4766 19H16.3925" stroke="#7C67FF" stroke-width="2" stroke-linecap="round" stroke-linejoin="round"/>
</svg>
