<svg width="19" height="19" viewBox="0 0 19 19" fill="none" xmlns="http://www.w3.org/2000/svg">
<path d="M3.71422 4.77778H16.1906C16.4434 4.77779 16.6934 4.83309 16.9245 4.94013C17.1555 5.04717 17.3626 5.20357 17.5322 5.39924C17.7018 5.59491 17.8303 5.82551 17.9093 6.07618C17.9883 6.32685 18.0162 6.59202 17.991 6.85461L17.4482 12.5213C17.4035 12.9874 17.1946 13.4195 16.8619 13.7338C16.5292 14.0481 16.0965 14.2222 15.6477 14.2222H7.00747C6.58901 14.2224 6.18342 14.0712 5.85976 13.7943C5.53611 13.5174 5.31439 13.1319 5.23237 12.7036L3.71422 4.77778ZM3.71422 4.77778L2.98138 1.71494C2.93237 1.51071 2.81939 1.32943 2.66039 1.1999C2.50138 1.07036 2.30548 1.00001 2.10378 1H1M6.42844 18H8.23792M13.6664 18H15.4758" stroke="#7C67FF" stroke-width="2" stroke-linecap="round" stroke-linejoin="round"/>
</svg>
