<svg width="23" height="22" viewBox="0 0 23 22" fill="none" xmlns="http://www.w3.org/2000/svg">
<path d="M19.5041 7.79053L19.5041 7.79047L13.1271 1.81323C13.1271 1.81321 13.1271 1.81318 13.1271 1.81316C12.5687 1.28977 11.8306 1 11.0657 1C10.3008 1 9.56269 1.28975 9.00437 1.81311C9.00433 1.81315 9.00429 1.81319 9.00424 1.81323L2.62637 7.79041L2.62624 7.79053C2.13401 8.252 1.74126 8.80822 1.4726 9.42578C1.20393 10.0434 1.06518 10.7089 1.06519 11.3819V18.0263C1.06519 18.8193 1.38452 19.5771 1.94856 20.1337C2.51216 20.6899 3.27378 21 4.06519 21H18.0652C18.8566 21 19.6182 20.6899 20.1818 20.1337C20.7459 19.5771 21.0652 18.8193 21.0652 18.0263V11.3819C21.0652 10.7089 20.9264 10.0434 20.6578 9.42578C20.3891 8.80822 19.9964 8.252 19.5041 7.79053Z" stroke="#7C67FF" stroke-width="2" stroke-linecap="round" stroke-linejoin="round"/>
</svg>
