<svg width="262" height="51" viewBox="0 0 262 51" fill="none" xmlns="http://www.w3.org/2000/svg">
<path d="M59.25 21.7338C58.381 9.57231 49.8885 0 39.5 0C29.1115 0 20.619 9.57231 19.75 21.7338C7.9 24.4408 0 29.4231 0 35.3077C0 43.9777 17.775 51 39.5 51C61.225 51 79 43.9777 79 35.3077C79 29.4231 71.1 24.4408 59.25 21.7338ZM51.0735 26.8338C43.5685 27.6577 35.4315 27.6577 27.9265 26.8338C27.7685 25.7354 27.65 24.6369 27.65 23.5385C27.65 14.9077 32.9825 7.84615 39.5 7.84615C46.0175 7.84615 51.35 14.9077 51.35 23.5385C51.35 24.6369 51.35 25.7354 51.0735 26.8338Z" fill="white"/>
<path d="M94.328 14.364H108.056V17.34H97.432V24.732H106.744V27.676H97.432V37.5H94.328V14.364ZM111.873 24.252H114.849V37.5H111.873V24.252ZM111.649 19.452C111.649 18.9827 111.831 18.588 112.193 18.268C112.577 17.948 112.993 17.788 113.441 17.788C113.889 17.788 114.284 17.948 114.625 18.268C114.988 18.588 115.169 18.9827 115.169 19.452C115.169 19.9427 114.988 20.348 114.625 20.668C114.284 20.9667 113.889 21.116 113.441 21.116C112.993 21.116 112.577 20.956 112.193 20.636C111.831 20.316 111.649 19.9213 111.649 19.452ZM130.75 36.284C130.153 36.7533 129.438 37.1267 128.606 37.404C127.774 37.6813 126.942 37.82 126.11 37.82C124.66 37.82 123.39 37.532 122.302 36.956C121.214 36.38 120.361 35.58 119.742 34.556C119.145 33.5107 118.846 32.284 118.846 30.876C118.846 29.468 119.166 28.2413 119.806 27.196C120.468 26.1507 121.321 25.3507 122.366 24.796C123.433 24.22 124.574 23.932 125.79 23.932C126.857 23.932 127.806 24.0813 128.638 24.38C129.492 24.6787 130.217 25.084 130.814 25.596L129.342 27.516C128.958 27.2173 128.489 26.9507 127.934 26.716C127.38 26.4813 126.75 26.364 126.046 26.364C125.278 26.364 124.564 26.5667 123.902 26.972C123.262 27.356 122.75 27.8893 122.366 28.572C122.004 29.2547 121.822 30.0227 121.822 30.876C121.822 31.6867 122.014 32.444 122.398 33.148C122.782 33.8307 123.316 34.3747 123.998 34.78C124.681 35.164 125.46 35.356 126.334 35.356C126.91 35.356 127.433 35.2707 127.902 35.1C128.393 34.9293 128.83 34.6947 129.214 34.396L130.75 36.284ZM135.872 18.428H138.848V24.316H142.496V26.652H138.848V37.5H135.872V26.652H133.44V24.316H135.872V18.428ZM146.092 24.252H149.068V37.5H146.092V24.252ZM145.868 19.452C145.868 18.9827 146.049 18.588 146.412 18.268C146.796 17.948 147.212 17.788 147.66 17.788C148.108 17.788 148.503 17.948 148.844 18.268C149.207 18.588 149.388 18.9827 149.388 19.452C149.388 19.9427 149.207 20.348 148.844 20.668C148.503 20.9667 148.108 21.116 147.66 21.116C147.212 21.116 146.796 20.956 146.412 20.636C146.049 20.316 145.868 19.9213 145.868 19.452ZM153.065 30.748C153.065 29.4253 153.374 28.2307 153.993 27.164C154.633 26.0973 155.508 25.2547 156.617 24.636C157.726 24.0173 158.985 23.708 160.393 23.708C161.844 23.708 163.113 24.0173 164.201 24.636C165.289 25.2547 166.132 26.0973 166.729 27.164C167.326 28.2307 167.625 29.4253 167.625 30.748C167.625 32.0707 167.326 33.276 166.729 34.364C166.132 35.4307 165.278 36.2733 164.169 36.892C163.081 37.5107 161.812 37.82 160.361 37.82C158.953 37.82 157.694 37.532 156.585 36.956C155.497 36.3587 154.633 35.5373 153.993 34.492C153.374 33.4253 153.065 32.1773 153.065 30.748ZM156.041 30.78C156.041 31.6333 156.233 32.412 156.617 33.116C157.001 33.7987 157.513 34.3427 158.153 34.748C158.814 35.1533 159.54 35.356 160.329 35.356C161.161 35.356 161.897 35.1533 162.537 34.748C163.198 34.3427 163.71 33.7987 164.073 33.116C164.436 32.412 164.617 31.6333 164.617 30.78C164.617 29.9267 164.436 29.1587 164.073 28.476C163.71 27.772 163.198 27.2173 162.537 26.812C161.897 26.3853 161.161 26.172 160.329 26.172C159.518 26.172 158.782 26.3853 158.121 26.812C157.481 27.2387 156.969 27.804 156.585 28.508C156.222 29.1907 156.041 29.948 156.041 30.78ZM174.311 24.252L174.567 27.484L174.439 26.972C174.865 25.9907 175.559 25.212 176.519 24.636C177.479 24.0387 178.588 23.74 179.847 23.74C181.105 23.74 182.129 24.1133 182.919 24.86C183.729 25.5853 184.145 26.5347 184.167 27.708V37.5H181.159V28.764C181.137 28.0387 180.924 27.452 180.519 27.004C180.135 26.5347 179.527 26.3 178.695 26.3C177.927 26.3 177.233 26.5133 176.615 26.94C175.996 27.3667 175.505 27.9533 175.143 28.7C174.801 29.4467 174.631 30.3107 174.631 31.292V37.5H171.655V24.252H174.311ZM202.046 18.492C201.257 18.0867 200.393 17.7347 199.454 17.436C198.515 17.1373 197.598 16.988 196.702 16.988C195.465 16.988 194.473 17.276 193.726 17.852C193.001 18.428 192.638 19.196 192.638 20.156C192.638 20.8813 192.873 21.5 193.342 22.012C193.811 22.5027 194.43 22.9293 195.198 23.292C195.966 23.6547 196.766 23.996 197.598 24.316C198.323 24.5933 199.038 24.9027 199.742 25.244C200.446 25.5853 201.075 26.012 201.63 26.524C202.206 27.036 202.654 27.6653 202.974 28.412C203.315 29.1587 203.486 30.0867 203.486 31.196C203.486 32.412 203.177 33.5213 202.558 34.524C201.961 35.5267 201.097 36.316 199.966 36.892C198.835 37.468 197.491 37.756 195.934 37.756C194.91 37.756 193.929 37.6387 192.99 37.404C192.073 37.1693 191.219 36.8707 190.43 36.508C189.641 36.124 188.937 35.7293 188.318 35.324L189.694 32.892C190.206 33.2547 190.793 33.6067 191.454 33.948C192.115 34.268 192.809 34.5347 193.534 34.748C194.259 34.94 194.963 35.036 195.646 35.036C196.371 35.036 197.086 34.908 197.79 34.652C198.515 34.3747 199.113 33.9587 199.582 33.404C200.051 32.8493 200.286 32.1133 200.286 31.196C200.286 30.4067 200.073 29.756 199.646 29.244C199.241 28.7107 198.697 28.2627 198.014 27.9C197.331 27.516 196.606 27.1747 195.838 26.876C195.113 26.5987 194.377 26.3 193.63 25.98C192.883 25.6387 192.19 25.2333 191.55 24.764C190.91 24.2733 190.398 23.676 190.014 22.972C189.63 22.268 189.438 21.4147 189.438 20.412C189.438 19.196 189.726 18.14 190.302 17.244C190.899 16.3267 191.71 15.612 192.734 15.1C193.758 14.5667 194.931 14.2787 196.254 14.236C197.747 14.236 199.059 14.4173 200.19 14.78C201.342 15.1427 202.355 15.5907 203.23 16.124L202.046 18.492ZM209.247 18.428H212.223V24.316H215.871V26.652H212.223V37.5H209.247V26.652H206.815V24.316H209.247V18.428ZM218.315 30.748C218.315 29.4253 218.624 28.2307 219.243 27.164C219.883 26.0973 220.758 25.2547 221.867 24.636C222.976 24.0173 224.235 23.708 225.643 23.708C227.094 23.708 228.363 24.0173 229.451 24.636C230.539 25.2547 231.382 26.0973 231.979 27.164C232.576 28.2307 232.875 29.4253 232.875 30.748C232.875 32.0707 232.576 33.276 231.979 34.364C231.382 35.4307 230.528 36.2733 229.419 36.892C228.331 37.5107 227.062 37.82 225.611 37.82C224.203 37.82 222.944 37.532 221.835 36.956C220.747 36.3587 219.883 35.5373 219.243 34.492C218.624 33.4253 218.315 32.1773 218.315 30.748ZM221.291 30.78C221.291 31.6333 221.483 32.412 221.867 33.116C222.251 33.7987 222.763 34.3427 223.403 34.748C224.064 35.1533 224.79 35.356 225.579 35.356C226.411 35.356 227.147 35.1533 227.787 34.748C228.448 34.3427 228.96 33.7987 229.323 33.116C229.686 32.412 229.867 31.6333 229.867 30.78C229.867 29.9267 229.686 29.1587 229.323 28.476C228.96 27.772 228.448 27.2173 227.787 26.812C227.147 26.3853 226.411 26.172 225.579 26.172C224.768 26.172 224.032 26.3853 223.371 26.812C222.731 27.2387 222.219 27.804 221.835 28.508C221.472 29.1907 221.291 29.948 221.291 30.78ZM239.561 24.252L239.849 28.092L239.689 27.58C240.03 26.7693 240.521 26.0867 241.161 25.532C241.822 24.956 242.505 24.5187 243.209 24.22C243.934 23.9 244.563 23.74 245.097 23.74L244.937 26.684C243.934 26.62 243.049 26.812 242.281 27.26C241.534 27.708 240.937 28.3053 240.489 29.052C240.062 29.7987 239.849 30.5987 239.849 31.452V37.5H236.905V24.252H239.561ZM254.517 37.82C253.003 37.82 251.701 37.5213 250.613 36.924C249.525 36.3053 248.683 35.4733 248.085 34.428C247.509 33.3613 247.221 32.1453 247.221 30.78C247.221 29.4787 247.552 28.2947 248.213 27.228C248.875 26.1613 249.76 25.308 250.869 24.668C251.979 24.028 253.216 23.708 254.581 23.708C256.331 23.708 257.781 24.22 258.933 25.244C260.085 26.268 260.864 27.676 261.269 29.468L250.357 33.308L249.653 31.548L258.613 28.284L257.973 28.7C257.717 27.996 257.291 27.388 256.693 26.876C256.096 26.3427 255.317 26.076 254.357 26.076C253.547 26.076 252.821 26.2787 252.181 26.684C251.541 27.068 251.04 27.6013 250.677 28.284C250.315 28.9667 250.133 29.7453 250.133 30.62C250.133 31.5373 250.325 32.348 250.709 33.052C251.093 33.7347 251.616 34.2787 252.277 34.684C252.96 35.068 253.728 35.26 254.581 35.26C255.157 35.26 255.712 35.1533 256.245 34.94C256.8 34.7267 257.312 34.4493 257.781 34.108L259.157 36.316C258.496 36.764 257.749 37.1267 256.917 37.404C256.107 37.6813 255.307 37.82 254.517 37.82Z" fill="white"/>
</svg>
