<svg width="19" height="18" viewBox="0 0 19 18" fill="none" xmlns="http://www.w3.org/2000/svg">
<path d="M5.85579 9.4752C5.98012 9.32952 6.13393 9.21185 6.30705 9.12995C6.48018 9.04804 6.6687 9.00375 6.86019 9H11.2702C11.6878 9 12.0388 9.2124 12.2746 9.4752C12.5188 9.7451 12.6575 10.0941 12.6652 10.458V10.746C12.6652 12.2166 11.1946 13.5 9.06519 13.5C6.93579 13.5 5.46519 12.2166 5.46519 10.746V10.458C5.46519 10.0944 5.62179 9.738 5.85579 9.4752ZM9.06519 7.2C9.54257 7.2 10.0004 7.01036 10.338 6.67279C10.6755 6.33523 10.8652 5.87739 10.8652 5.4C10.8652 4.92261 10.6755 4.46477 10.338 4.12721C10.0004 3.78964 9.54257 3.6 9.06519 3.6C8.5878 3.6 8.12996 3.78964 7.79239 4.12721C7.45483 4.46477 7.26519 4.92261 7.26519 5.4C7.26519 5.87739 7.45483 6.33523 7.79239 6.67279C8.12996 7.01036 8.5878 7.2 9.06519 7.2ZM9.06519 18C11.4521 18 13.7413 17.0518 15.4291 15.364C17.117 13.6761 18.0652 11.3869 18.0652 9C18.0652 6.61305 17.117 4.32387 15.4291 2.63604C13.7413 0.948212 11.4521 0 9.06519 0C6.67824 0 4.38905 0.948212 2.70122 2.63604C1.0134 4.32387 0.0651855 6.61305 0.0651855 9C0.0651855 11.3869 1.0134 13.6761 2.70122 15.364C4.38905 17.0518 6.67824 18 9.06519 18ZM9.06519 16.2C7.15563 16.2 5.32428 15.4414 3.97402 14.0912C2.62375 12.7409 1.86519 10.9096 1.86519 9C1.86519 7.09044 2.62375 5.25909 3.97402 3.90883C5.32428 2.55857 7.15563 1.8 9.06519 1.8C10.9747 1.8 12.8061 2.55857 14.1564 3.90883C15.5066 5.25909 16.2652 7.09044 16.2652 9C16.2652 10.9096 15.5066 12.7409 14.1564 14.0912C12.8061 15.4414 10.9747 16.2 9.06519 16.2Z" fill="#7C67FF"/>
</svg>
